<?xml version="1.0" standalone="no"?>
<!DOCTYPE svg PUBLIC "-//W3C//DTD SVG 20010904//EN"
 "http://www.w3.org/TR/2001/REC-SVG-20010904/DTD/svg10.dtd">
<svg version="1.0" xmlns="http://www.w3.org/2000/svg"
 width="600.000000pt" height="446.000000pt" viewBox="0 0 600.000000 446.000000"
 preserveAspectRatio="xMidYMid meet">
<metadata>
Created by potrace 1.15, written by Peter Selinger 2001-2017
</metadata>
<g transform="translate(0.000000,446.000000) scale(0.100000,-0.100000)"
fill="#000000" stroke="none">
<path d="M2454 3043 c-7 -2 -9 -22 -6 -53 4 -43 1 -52 -19 -70 -13 -10 -27
-19 -30 -20 -4 0 -9 21 -12 46 -5 48 -38 94 -66 94 -9 0 -65 -29 -125 -64
-129 -74 -146 -97 -146 -193 0 -60 -1 -63 -24 -63 -66 0 -100 -43 -94 -115 4
-48 24 -57 33 -15 7 33 42 57 69 47 13 -5 16 -24 16 -92 0 -48 -5 -95 -11
-107 -14 -26 -7 -31 25 -17 56 26 61 45 64 274 3 174 6 213 19 228 9 9 20 17
25 17 4 0 8 -121 8 -270 0 -257 -1 -271 -20 -290 -24 -24 -60 -25 -146 -4 -79
20 -125 10 -169 -36 -25 -27 -30 -40 -33 -99 -5 -83 11 -120 68 -157 64 -42
230 -44 230 -3 0 7 -7 8 -17 4 -35 -14 -109 -17 -152 -5 -84 22 -137 106 -114
177 17 49 48 56 151 32 81 -19 95 -20 134 -8 35 12 47 22 66 59 19 39 22 59
22 173 l0 128 53 -3 52 -3 3 -121 3 -121 -51 -39 c-48 -36 -61 -54 -41 -54 6
0 13 5 16 10 12 19 70 10 108 -16 42 -28 33 -31 120 39 26 21 47 44 47 50 0 8
-4 7 -12 -1 -28 -28 -33 -11 -31 120 l2 133 55 3 56 3 0 -147 c0 -137 2 -150
23 -181 12 -18 27 -35 34 -37 13 -5 103 70 103 86 0 6 -6 5 -15 -2 -13 -11
-20 -9 -40 10 l-25 23 0 267 0 266 40 30 c44 32 58 66 15 38 -24 -15 -26 -15
-64 15 -21 17 -42 31 -45 31 -4 0 -34 -18 -66 -40 -32 -22 -63 -40 -68 -40 -5
0 -6 17 -2 40 7 41 4 51 -16 43z m-171 -101 c26 -27 27 -33 27 -125 l0 -97
-55 0 -55 0 0 119 c0 86 3 121 13 124 27 11 44 6 70 -21z m274 -4 c21 -20 23
-30 23 -120 l0 -98 -55 0 -55 0 0 104 c0 96 2 105 23 119 30 21 37 21 64 -5z
m-111 -575 c-2 -2 -15 2 -30 8 l-26 12 0 243 0 242 28 20 27 20 3 -270 c1
-149 1 -273 -2 -275z"/>
<path d="M290 3025 c-88 -28 -150 -102 -150 -182 0 -40 25 -88 40 -78 5 3 0
15 -10 25 -27 27 -26 89 2 125 47 60 123 69 262 31 94 -26 105 -32 90 -44 -5
-5 -42 -34 -81 -66 -40 -32 -73 -62 -73 -67 0 -12 32 5 50 25 7 9 16 16 21 16
13 0 11 -347 -2 -372 -15 -27 -4 -34 27 -18 49 27 54 53 54 263 0 226 1 229
83 220 l47 -6 0 -267 0 -267 -46 -13 c-93 -26 -221 30 -277 122 -43 69 -57
176 -33 258 18 69 64 143 99 162 13 6 17 13 10 15 -18 6 -83 -41 -120 -88 -52
-66 -75 -140 -75 -241 1 -140 44 -215 157 -269 51 -25 72 -29 140 -29 119 0
184 35 253 137 33 47 27 51 -15 12 -80 -74 -73 -94 -73 204 l0 265 35 21 c31
18 75 73 75 94 0 5 -10 1 -22 -7 -31 -22 -80 -20 -220 9 -135 28 -183 30 -248
10z"/>
<path d="M938 2970 c-19 -22 -37 -40 -40 -40 -3 0 -9 11 -12 25 -17 66 -21 2
-18 -274 l3 -298 -26 -17 c-32 -21 -32 -35 -1 -29 18 4 29 -2 41 -21 10 -14
23 -26 30 -26 7 0 32 18 56 41 24 22 36 38 25 35 -11 -4 -27 0 -37 10 -16 14
-19 32 -19 110 l0 92 50 36 c49 35 51 36 75 20 25 -16 25 -18 25 -158 0 -77
-5 -157 -10 -177 -8 -28 -6 -52 10 -110 17 -64 17 -77 5 -101 -15 -32 -5 -44
25 -28 50 27 52 76 4 153 -25 40 -34 65 -30 81 6 26 50 49 77 41 23 -8 25 8 4
25 -12 10 -15 38 -15 128 l0 116 33 34 c29 31 30 34 9 27 -18 -5 -33 0 -62 24
l-38 31 -71 -55 c-39 -30 -76 -55 -82 -55 -8 0 -10 50 -7 163 3 131 7 168 22
195 25 48 14 49 -26 2z"/>
<path d="M3421 2710 c-28 -24 -59 -25 -104 -4 -32 15 -35 15 -71 -10 -21 -14
-54 -28 -75 -32 -63 -10 -66 -12 -47 -32 21 -24 22 -115 1 -132 -25 -20 -7
-30 56 -30 32 0 59 -2 59 -5 0 -3 -30 -42 -66 -86 -66 -82 -75 -105 -30 -75
34 22 74 20 115 -5 l33 -20 22 20 c25 24 87 51 115 51 25 0 37 18 22 33 -18
18 -14 124 5 135 34 19 4 31 -61 25 -36 -3 -65 -3 -65 1 0 3 27 40 60 82 33
41 60 82 60 90 0 18 0 18 -29 -6z m-51 -290 l0 -71 -30 16 c-38 19 -93 19
-132 -1 -36 -19 -34 -14 30 69 42 54 47 57 88 57 l44 0 0 -70z"/>
<path d="M1401 2695 c-19 -13 -56 -29 -82 -36 -48 -13 -59 -22 -39 -34 6 -4
10 -57 10 -127 0 -117 -1 -121 -26 -140 -28 -23 -26 -35 4 -19 16 9 28 4 64
-23 l44 -34 79 51 c44 28 74 52 67 55 -6 2 -26 -7 -43 -19 l-32 -22 -43 23
c-38 19 -44 27 -44 54 0 28 9 37 85 86 47 30 85 60 85 67 0 14 -81 143 -89
143 -3 -1 -21 -12 -40 -25z"/>
<path d="M2925 2695 c-21 -13 -61 -30 -87 -36 -47 -13 -58 -22 -38 -34 6 -4
10 -57 10 -128 0 -120 0 -121 -27 -144 l-28 -22 36 6 c30 4 42 0 72 -27 l36
-31 73 46 c86 56 83 53 75 61 -3 4 -22 -3 -42 -15 l-36 -21 -39 20 c-35 18
-40 25 -40 54 0 31 6 37 85 87 46 30 84 58 85 63 0 10 -83 146 -90 146 -3 -1
-23 -12 -45 -25z"/>
<path d="M3655 2689 c-27 -16 -62 -29 -76 -29 -33 0 -42 -9 -27 -27 18 -22 20
-109 2 -123 -32 -28 -16 -40 52 -40 l66 0 -34 -42 c-85 -106 -101 -128 -95
-134 3 -3 16 1 29 10 30 21 66 20 110 -4 l37 -20 28 24 c16 13 48 29 73 36 78
21 74 20 62 32 -15 15 -16 134 -2 143 25 16 5 25 -55 25 -39 0 -65 4 -65 11 0
5 25 41 55 78 63 78 69 96 23 74 -31 -16 -51 -14 -118 10 -8 2 -37 -8 -65 -24z
m145 -262 c0 -35 -3 -67 -6 -70 -4 -3 -16 0 -28 8 -27 20 -99 19 -138 -1 -28
-15 -27 -11 23 55 53 69 55 70 102 70 l47 1 0 -63z"/>
<path d="M4100 2700 c-14 -10 -51 -27 -82 -36 -57 -17 -68 -27 -48 -39 6 -4
10 -57 10 -125 0 -116 0 -119 -27 -139 -29 -24 -26 -39 5 -22 16 9 28 4 64
-24 l45 -34 79 51 c43 28 73 53 67 55 -7 3 -29 -5 -48 -17 l-36 -22 -39 26
c-31 20 -40 33 -40 54 0 23 13 35 85 82 47 30 85 61 85 68 0 15 -79 142 -88
142 -4 0 -18 -9 -32 -20z"/>
<path d="M4297 2681 c-23 -22 -38 -43 -34 -47 4 -4 12 -3 19 4 8 8 16 5 29
-13 16 -19 19 -41 19 -134 l0 -111 -37 -35 c-21 -19 -33 -35 -26 -35 6 0 15 5
18 10 11 17 42 11 73 -14 l29 -25 49 45 c34 31 42 43 27 39 -15 -4 -29 1 -42
14 -17 17 -21 34 -21 95 l0 73 56 53 56 53 20 -21 c19 -19 21 -34 23 -155 1
-121 3 -136 24 -165 12 -18 25 -32 28 -32 3 0 26 16 49 36 44 35 58 62 28 50
-10 -4 -25 1 -35 10 -16 15 -19 33 -19 130 l0 113 35 27 c39 30 39 45 0 24
-24 -13 -28 -11 -60 20 l-34 33 -76 -64 c-41 -35 -80 -65 -85 -67 -6 -2 -10
14 -10 36 0 38 -30 92 -51 92 -5 0 -29 -18 -52 -39z"/>
<path d="M4955 2699 c-33 -21 -75 -34 -148 -44 -42 -6 -46 -8 -37 -25 5 -10
10 -72 10 -137 0 -107 -2 -119 -20 -131 -28 -17 -25 -34 4 -26 17 4 41 -3 75
-22 28 -15 51 -30 51 -33 0 -4 -23 -29 -51 -56 -28 -28 -64 -67 -81 -87 l-30
-38 45 6 c42 6 48 4 89 -34 l43 -40 82 44 c45 25 96 61 114 81 28 33 31 41 27
90 -4 41 -11 60 -31 81 -26 28 -27 31 -27 159 0 128 1 132 25 151 14 11 25 26
25 33 0 10 -3 10 -12 1 -18 -18 -32 -15 -73 18 -44 35 -41 34 -80 9z m5 -69
l40 -20 0 -114 c0 -141 -5 -149 -86 -121 l-54 18 0 123 c0 88 3 124 13 127 24
10 48 7 87 -13z m84 -368 c20 -25 36 -51 36 -58 0 -31 -25 -64 -65 -85 l-42
-22 -32 24 c-34 25 -95 32 -140 15 -17 -6 13 32 84 108 106 113 110 116 117
91 4 -15 23 -47 42 -73z"/>
<path d="M5305 2694 c-22 -13 -59 -29 -82 -35 -42 -11 -53 -22 -33 -34 6 -4
10 -57 10 -125 0 -116 0 -119 -27 -139 -29 -24 -26 -39 5 -22 16 9 28 4 64
-24 l45 -34 79 51 c43 28 73 53 67 55 -7 3 -29 -5 -48 -17 l-34 -21 -40 23
c-34 19 -41 28 -41 53 0 27 10 36 85 85 47 30 85 61 85 68 0 15 -79 142 -88
141 -4 0 -25 -12 -47 -25z"/>
<path d="M5525 2680 c-21 -22 -36 -43 -32 -47 4 -4 13 -1 19 5 9 9 16 8 30 -5
15 -14 18 -33 18 -128 l0 -111 -35 -34 c-39 -38 -40 -50 0 -24 26 17 26 17 65
-21 l39 -38 56 42 c30 23 55 49 55 58 0 14 -3 14 -21 -3 -19 -17 -23 -17 -47
-3 -26 14 -27 17 -30 120 -2 95 -1 107 18 124 19 17 21 17 38 2 24 -22 46 -21
83 0 33 20 39 53 10 53 -11 0 -29 12 -40 28 l-21 27 -41 -47 c-42 -49 -59 -59
-59 -34 0 15 -47 76 -59 76 -4 0 -24 -18 -46 -40z"/>
</g>
</svg>
